<svg width="50" height="50" viewBox="0 0 50 50" fill="none" xmlns="http://www.w3.org/2000/svg">
<path d="M47.4326 6.52762L40.8998 0L27.3329 13.5805L32.5924 19.0268C31.7109 20.5958 29.7984 23.6011 26.5391 26.8691C23.2793 30.1376 20.26 32.0771 18.6803 32.9749L13.3551 27.7035L0 41.0145L6.49712 47.5723C8.98063 50.0625 12.7595 50.7078 15.9004 49.1783C20.6932 46.8443 27.9266 42.5377 35.1691 35.2759C42.4114 28.0143 46.7065 20.7616 49.0344 15.9559C49.586 14.8173 49.8539 13.5951 49.8539 12.3808C49.8539 10.2367 49.0182 8.11736 47.4326 6.52762ZM45.5327 14.2505C43.3353 18.7869 39.276 25.638 32.4164 32.5159C25.5565 39.3941 18.7237 43.4641 14.1995 45.6673C12.5501 46.4705 10.5608 46.1269 9.25422 44.8169L5.50426 41.0318L13.3647 33.1978L17.9014 37.6884L19.1151 37.1464C19.3124 37.0583 24.0067 34.9285 29.292 29.6291C34.5808 24.3262 36.6608 19.6592 36.7467 19.463L37.273 18.2624L32.7965 13.6269L40.9025 5.51268L44.6819 9.28894C45.9914 10.6039 46.3335 12.5975 45.5327 14.2505Z" fill="white"/>
</svg>
