<svg width="51" height="50" viewBox="0 0 51 50" fill="none" xmlns="http://www.w3.org/2000/svg">
<g clip-path="url(#clip0)">
<path d="M35.8646 0H14.9129C6.9042 0 0.388672 6.51553 0.388672 14.5242V35.4758C0.388672 43.4845 6.9042 50 14.9129 50H35.8645C43.8731 50 50.3887 43.4845 50.3887 35.4759V14.5242C50.3887 6.51553 43.8731 0 35.8646 0ZM46.4824 35.4758C46.4824 41.3306 41.7192 46.0938 35.8646 46.0938H14.9129C9.05811 46.0938 4.29492 41.3306 4.29492 35.4759V14.5242C4.29492 8.66943 9.05811 3.90625 14.9129 3.90625H35.8645C41.7192 3.90625 46.4824 8.66943 46.4824 14.5242V35.4758Z" fill="white"/>
<path d="M25.3887 11.5234C17.9576 11.5234 11.9121 17.5689 11.9121 25C11.9121 32.4311 17.9576 38.4766 25.3887 38.4766C32.8197 38.4766 38.8652 32.4311 38.8652 25C38.8652 17.5689 32.8197 11.5234 25.3887 11.5234ZM25.3887 34.5703C20.1116 34.5703 15.8184 30.2771 15.8184 25C15.8184 19.7229 20.1116 15.4297 25.3887 15.4297C30.6657 15.4297 34.959 19.7229 34.959 25C34.959 30.2771 30.6657 34.5703 25.3887 34.5703Z" fill="white"/>
<path d="M39.0605 13.2812C40.1392 13.2812 41.0137 12.4068 41.0137 11.3281C41.0137 10.2494 40.1392 9.375 39.0605 9.375C37.9819 9.375 37.1074 10.2494 37.1074 11.3281C37.1074 12.4068 37.9819 13.2812 39.0605 13.2812Z" fill="white"/>
</g>
<defs>
<clipPath id="clip0">
<rect width="50" height="50" fill="white" transform="translate(0.388672)"/>
</clipPath>
</defs>
</svg>
