<svg width="50" height="50" viewBox="0 0 50 50" fill="none" xmlns="http://www.w3.org/2000/svg">
<path d="M44.0117 0H5.84226C2.62084 0 0 3.57926 0 7.97872V42.0213C0 46.4207 2.62084 50 5.84226 50H44.0117C47.2331 50 49.8539 46.4207 49.8539 42.0213V7.97872C49.8539 3.57926 47.2331 0 44.0117 0ZM45.9591 42.0213C45.9591 43.4878 45.0855 44.6809 44.0117 44.6809H5.84226C4.76845 44.6809 3.89484 43.4878 3.89484 42.0213V7.97872C3.89484 6.51223 4.76845 5.31915 5.84226 5.31915H44.0117C45.0855 5.31915 45.9591 6.51223 45.9591 7.97872V42.0213Z" fill="white"/>
<path d="M45.6284 3.31641L24.927 24.3452L4.22551 3.31641L1.90088 7.58435L24.927 30.9745L47.953 7.58435L45.6284 3.31641Z" fill="white"/>
</svg>
