<svg width="51" height="50" viewBox="0 0 51 50" fill="none" xmlns="http://www.w3.org/2000/svg">
<g clip-path="url(#clip0)">
<path d="M44.5293 0H6.24805C3.01719 0 0.388672 2.62852 0.388672 5.85938V44.1406C0.388672 47.3715 3.01719 50 6.24805 50H44.5293C47.7602 50 50.3887 47.3715 50.3887 44.1406V5.85938C50.3887 2.62852 47.7602 0 44.5293 0ZM46.4824 44.1406C46.4824 45.2176 45.6063 46.0938 44.5293 46.0938H33.3965V30.1758H39.4307L40.4277 24.1211H33.3965V19.9219C33.3965 18.2642 34.6685 16.9922 36.3262 16.9922H40.3301V10.9375H36.3262C31.3532 10.9375 27.3439 14.9658 27.3439 19.9389V24.1211H21.4824V30.1758H27.3439V46.0938H6.24805C5.17109 46.0938 4.29492 45.2176 4.29492 44.1406V5.85938C4.29492 4.78242 5.17109 3.90625 6.24805 3.90625H44.5293C45.6063 3.90625 46.4824 4.78242 46.4824 5.85938V44.1406Z" fill="white"/>
</g>
<defs>
<clipPath id="clip0">
<rect width="50" height="50" fill="white" transform="translate(0.388672)"/>
</clipPath>
</defs>
</svg>
