<svg width="50" height="50" viewBox="0 0 50 50" fill="none" xmlns="http://www.w3.org/2000/svg">
<path d="M24.9998 10.748C19.8814 10.748 15.7173 14.9122 15.7173 20.0306C15.7173 25.1489 19.8814 29.3131 24.9998 29.3131C30.1182 29.3131 34.2823 25.1489 34.2823 20.0306C34.2823 14.9122 30.1182 10.748 24.9998 10.748ZM24.9998 25.4047C22.0365 25.4047 19.6257 22.9938 19.6257 20.0306C19.6257 17.0673 22.0365 14.6564 24.9998 14.6564C27.9631 14.6564 30.3739 17.0673 30.3739 20.0306C30.3739 22.9938 27.9631 25.4047 24.9998 25.4047Z" fill="white"/>
<path d="M25 0C13.955 0 4.96924 8.98584 4.96924 20.0308V20.5845C4.96924 26.1704 8.17178 32.6798 14.4882 39.9314C19.0671 45.1885 23.582 48.8541 23.7719 49.0076L25 50L26.2281 49.0077C26.4181 48.8542 30.933 45.1886 35.5118 39.9315C41.8281 32.6798 45.0308 26.1705 45.0308 20.5846V20.0309C45.0308 8.98584 36.045 0 25 0ZM41.1224 20.5846C41.1224 30.0245 28.9592 41.4518 25 44.9207C21.0397 41.4507 8.87764 30.0238 8.87764 20.5846V20.0309C8.87764 11.141 16.1102 3.9085 25 3.9085C33.8898 3.9085 41.1224 11.141 41.1224 20.0309V20.5846Z" fill="white"/>
</svg>
