<svg width="55" height="56" viewBox="0 0 55 56" fill="none" xmlns="http://www.w3.org/2000/svg">
<path d="M2.54331 55.0768C2.57075 55.2792 2.67607 55.4646 2.83888 55.5972C3.00168 55.7299 3.21038 55.8003 3.42457 55.7948H14.8398C14.9767 55.8006 15.113 55.7749 15.2372 55.7198C15.3614 55.6648 15.4698 55.582 15.5532 55.4785C15.6367 55.375 15.6926 55.2539 15.7163 55.1254C15.7401 54.9969 15.7309 54.8649 15.6896 54.7405L14.2292 50.186L18.779 47.4499C19.3635 47.1444 20.0479 47.0613 20.6942 47.2173C20.7125 47.2218 20.731 47.2264 20.7496 47.2294L30.2508 48.896C32.8706 49.3423 35.5716 48.9793 37.9593 47.8599C37.9969 47.8424 38.0332 47.8222 38.0678 47.7996L54.5003 37.0569C54.6869 36.935 54.8174 36.7498 54.8654 36.5393C54.9134 36.3287 54.8751 36.1087 54.7584 35.9241C54.1369 34.9383 53.1399 34.2188 51.9751 33.9155C50.8102 33.6121 49.5674 33.7484 48.5054 34.2957L48.3525 34.3744C47.1564 33.0886 45.1689 32.6083 43.6441 33.3444L43.6243 33.3543L43.0692 33.6389C42.253 33.0119 41.2568 32.6345 40.2112 32.5562C39.1657 32.478 38.1197 32.7026 37.2107 33.2005L33.6925 35.0232H28.9996C28.0005 35.0217 27.0147 34.8062 26.1149 34.3928L25.4634 34.0923C23.5781 33.2188 21.4757 32.8591 19.389 33.0531C17.3022 33.2471 15.3126 33.9871 13.6403 35.1912C13.6208 35.2052 13.6023 35.2197 13.5838 35.2351L12.0102 36.569C11.4803 37.0177 10.8608 37.3602 10.1889 37.5761L9.34718 34.9225C9.29304 34.7464 9.18169 34.5912 9.02913 34.4791C8.87657 34.367 8.69064 34.3039 8.49802 34.2986H0.887848C0.760472 34.3033 0.635537 34.3334 0.52106 34.3867C0.406582 34.4401 0.305091 34.5157 0.2231 34.6086C0.139751 34.6982 0.0773445 34.8036 0.0400182 34.9179C0.00269178 35.0321 -0.0087024 35.1526 0.00659052 35.2714L2.54331 55.0768ZM44.4561 34.8487C45.1764 34.5066 46.0669 34.7368 46.7066 35.2204L40.7042 38.3037L40.5184 38.397C40.345 37.9781 40.1164 37.5819 39.8381 37.2179L44.4561 34.8487ZM38.0694 34.6797C38.0765 34.676 38.0836 34.6723 38.0904 34.6685C38.5732 34.4026 39.1169 34.2531 39.6743 34.2329C40.2317 34.2128 40.7857 34.3227 41.2883 34.553L38.5106 35.978C38.0358 35.6615 37.5119 35.4176 36.958 35.2551L38.0694 34.6797ZM13.191 37.8316L14.7366 36.5214C16.1476 35.5131 17.8234 34.8949 19.5796 34.7348C21.3357 34.5746 23.1043 34.8788 24.6907 35.6138L25.3424 35.9148C26.4831 36.4388 27.733 36.7119 28.9996 36.7139H35.3195C36.1674 36.7148 36.9909 36.9844 37.66 37.4802C38.3291 37.9761 38.8058 38.6699 39.0148 39.4523L34.6676 39.2645C32.9914 39.1923 31.3117 39.2661 29.6496 39.4849C29.4192 39.5188 29.2121 39.6375 29.0729 39.8155C28.9337 39.9935 28.8736 40.2165 28.9056 40.4363C28.9376 40.6561 29.059 40.8552 29.2438 40.9904C29.4286 41.1257 29.6618 41.1864 29.8931 41.1594C31.448 40.9549 33.0192 40.8857 34.5873 40.9529L39.9779 41.1851C39.9905 41.1851 40.0046 41.186 40.0179 41.186C40.2534 41.186 40.4792 41.0969 40.6457 40.9384C40.8122 40.7799 40.9058 40.5648 40.9058 40.3406C40.9058 40.2653 40.9031 40.1904 40.8999 40.1158L41.5391 39.7949L49.3484 35.7836C49.8818 35.5085 50.492 35.3987 51.094 35.4694C51.6961 35.5401 52.2599 35.7878 52.7071 36.1781L37.1157 46.3707C35.0841 47.3094 32.7924 47.6113 30.5694 47.2329L21.0973 45.5722C20.0122 45.3186 18.8664 45.4671 17.892 45.9876C17.8782 45.9951 17.8644 46.0028 17.851 46.0109L13.6908 48.515L10.7064 39.1945C11.6238 38.9068 12.4694 38.443 13.191 37.8317V37.8316ZM7.8405 35.9894L13.641 54.1041H4.2107L1.89049 35.9894H7.8405Z" fill="white"/>
<path d="M8.53379 53.8293C9.01042 53.8293 9.47635 53.6947 9.87265 53.4426C10.269 53.1905 10.5778 52.8321 10.7602 52.4129C10.9426 51.9936 10.9904 51.5322 10.8974 51.0871C10.8044 50.642 10.5749 50.2332 10.2378 49.9123C9.90081 49.5914 9.47141 49.3729 9.00394 49.2843C8.53646 49.1958 8.05192 49.2412 7.61157 49.4149C7.17122 49.5886 6.79484 49.8827 6.53004 50.26C6.26524 50.6373 6.1239 51.081 6.1239 51.5348C6.12464 52.1431 6.37878 52.7263 6.83056 53.1565C7.28234 53.5866 7.89487 53.8286 8.53379 53.8293ZM8.53379 50.9309C8.65922 50.9309 8.78183 50.9664 8.88612 51.0327C8.99041 51.0991 9.0717 51.1934 9.1197 51.3037C9.1677 51.414 9.18026 51.5354 9.15579 51.6526C9.13132 51.7697 9.07092 51.8773 8.98222 51.9617C8.89353 52.0462 8.78053 52.1037 8.65751 52.127C8.53449 52.1503 8.40698 52.1383 8.2911 52.0926C8.17522 52.0469 8.07617 51.9695 8.00649 51.8702C7.9368 51.7709 7.89961 51.6542 7.89961 51.5348C7.89981 51.3747 7.96669 51.2212 8.08558 51.108C8.20447 50.9948 8.36566 50.9311 8.53379 50.9309Z" fill="white"/>
<path d="M13.4059 16.8889L15.815 17.11C16.0886 18.0546 16.4893 18.9615 17.0073 19.8081L15.4773 21.5672C15.3361 21.7294 15.2635 21.9359 15.2739 22.1463C15.2842 22.3567 15.3767 22.5559 15.5332 22.7048L18.4223 25.4556C18.5786 25.6045 18.7876 25.6925 19.0085 25.7024C19.2293 25.7122 19.4461 25.6433 19.6164 25.509L21.4682 24.0483C22.3567 24.5401 23.3071 24.9227 24.2967 25.1867L24.5289 27.4886C24.5499 27.6987 24.652 27.8939 24.8155 28.0364C24.9789 28.1789 25.1921 28.2586 25.4137 28.2601H29.5098C29.7313 28.2584 29.9443 28.1785 30.1075 28.0359C30.2708 27.8933 30.3727 27.6981 30.3936 27.4881L30.6258 25.1905C31.6178 24.9295 32.5702 24.5473 33.4593 24.0536L35.3069 25.5095C35.4773 25.6437 35.6941 25.7125 35.9149 25.7025C36.1357 25.6926 36.3447 25.6045 36.501 25.4556L39.3897 22.7048C39.5461 22.5559 39.6385 22.3569 39.6489 22.1465C39.6593 21.9362 39.5869 21.7298 39.4458 21.5676L37.9111 19.8037C38.4279 18.9575 38.8297 18.0522 39.1069 17.1097L41.4808 16.889C41.7003 16.8686 41.904 16.7712 42.0522 16.6157C42.2003 16.4601 42.2824 16.2576 42.2824 16.0476V12.1474C42.2824 11.9373 42.2002 11.7346 42.0518 11.5791C41.9034 11.4235 41.6995 11.3261 41.4798 11.3059L39.0707 11.0849C38.7971 10.1404 38.3964 9.23347 37.8784 8.38683L39.4084 6.6276C39.5488 6.46619 39.6212 6.2609 39.6116 6.05154C39.602 5.84218 39.511 5.64369 39.3564 5.49455L36.5045 2.74357C36.3485 2.59325 36.139 2.504 35.9174 2.49343C35.6957 2.48286 35.4779 2.55172 35.3069 2.68645L33.4551 4.14774C32.5667 3.65591 31.6163 3.2734 30.6267 3.00938L30.3944 0.740145C30.3722 0.533247 30.2686 0.342012 30.1044 0.204799C29.9403 0.067586 29.7277 -0.00545801 29.5094 0.0003182H25.4137C25.1957 -0.00516159 24.9835 0.0679384 24.8197 0.204996C24.6558 0.342054 24.5523 0.532965 24.5299 0.739541L24.2976 3.02073C23.3058 3.279 22.3534 3.65843 21.464 4.14955L19.6163 2.68959C19.4462 2.55511 19.2295 2.48589 19.0087 2.49547C18.7878 2.50505 18.5787 2.59274 18.4221 2.7414L15.5332 5.49141C15.377 5.64024 15.2847 5.83918 15.2743 6.04936C15.2639 6.25954 15.3362 6.46585 15.4771 6.62796L17.0118 8.39118C16.4953 9.23712 16.0936 10.1421 15.8163 11.0843L13.4064 11.3054C13.1865 11.3255 12.9824 11.4229 12.8339 11.5786C12.6854 11.7343 12.6031 11.9371 12.6033 12.1474V16.0474C12.6033 16.2576 12.6855 16.4602 12.8339 16.6158C12.9823 16.7714 13.1862 16.8687 13.4059 16.8889ZM14.379 12.9153L16.6113 12.71C16.7987 12.6927 16.9754 12.6193 17.1161 12.5001C17.2567 12.381 17.354 12.2224 17.3937 12.0472C17.6664 10.8822 18.1581 9.77371 18.8451 8.77534C18.9474 8.62438 18.9966 8.4463 18.9854 8.26695C18.9742 8.0876 18.9033 7.91631 18.783 7.77792L17.3603 6.14199L19.1063 4.47949L20.8242 5.83415C20.9712 5.95017 21.1537 6.01793 21.3444 6.02737C21.5352 6.03681 21.724 5.98743 21.883 5.88657C22.9253 5.22992 24.0869 4.76378 25.3084 4.51198C25.4905 4.47956 25.6567 4.39192 25.7822 4.26214C25.9076 4.13237 25.9856 3.96743 26.0045 3.79196L26.2201 1.69059H28.7036L28.9192 3.79196C28.9377 3.9689 29.0152 4.13555 29.1405 4.26741C29.2658 4.39927 29.4322 4.48939 29.6153 4.52454C30.8388 4.78158 32.0034 5.2475 33.0525 5.89973C33.2115 5.99671 33.3987 6.04295 33.5871 6.03172C33.7755 6.02049 33.9552 5.95239 34.1002 5.83729L35.8141 4.48469L37.5309 6.13921L36.1032 7.7778C35.9815 7.91786 35.9104 8.09155 35.9005 8.27312C35.8906 8.45469 35.9425 8.63445 36.0484 8.78573C36.738 9.77818 37.2275 10.8842 37.4919 12.0472C37.5317 12.2224 37.629 12.381 37.7696 12.5001C37.9102 12.6193 38.087 12.6927 38.2744 12.71L40.5067 12.9153V15.2805L38.3095 15.4847C38.1223 15.5021 37.9458 15.5757 37.8053 15.6948C37.6648 15.8139 37.5677 15.9724 37.528 16.1474C37.2557 17.3128 36.7641 18.4216 36.0771 19.4202C35.9748 19.5712 35.9256 19.7493 35.9368 19.9287C35.948 20.1081 36.0189 20.2794 36.1392 20.4178L37.5626 22.0526L35.8166 23.7151L34.0986 22.3604C33.9515 22.2444 33.769 22.1767 33.5783 22.1672C33.3875 22.1578 33.1987 22.2072 33.0397 22.308C31.9974 22.9648 30.8358 23.4311 29.6143 23.683C29.4297 23.7225 29.263 23.8167 29.138 23.9518C29.013 24.087 28.936 24.2564 28.9182 24.4357L28.7031 26.5693H26.2196L26.004 24.4357C25.986 24.2569 25.9089 24.0881 25.7838 23.9536C25.6588 23.819 25.4922 23.7257 25.3079 23.687C24.0842 23.4269 22.9199 22.9583 21.8713 22.3037C21.7128 22.2061 21.5258 22.1592 21.3375 22.1697C21.1491 22.1802 20.9691 22.2475 20.8236 22.362L19.1058 23.7162L17.3603 22.0526L18.783 20.4168C18.9048 20.2767 18.976 20.1029 18.9858 19.9213C18.9957 19.7397 18.9438 19.5598 18.8378 19.4085C18.1482 18.416 17.6587 17.3101 17.3943 16.147C17.3545 15.9719 17.2572 15.8132 17.1166 15.6941C16.9759 15.575 16.7992 15.5015 16.6118 15.4843L14.3795 15.279L14.379 12.9153Z" fill="white"/>
<path d="M27.4614 22.5354C29.2143 22.5354 30.9278 22.0405 32.3853 21.1132C33.8427 20.186 34.9787 18.868 35.6495 17.3261C36.3203 15.7841 36.4958 14.0874 36.1538 12.4505C35.8118 10.8135 34.9677 9.30992 33.7282 8.12977C32.4888 6.94962 30.9096 6.14593 29.1904 5.82034C27.4712 5.49475 25.6892 5.66188 24.0697 6.30059C22.4503 6.93931 21.0661 8.02092 20.0923 9.40865C19.1185 10.7964 18.5987 12.4279 18.5988 14.0969C18.6014 16.3342 19.536 18.4791 21.1975 20.0611C22.859 21.643 25.1117 22.5329 27.4614 22.5354ZM27.4614 7.34906C28.8631 7.34906 30.2333 7.74482 31.3987 8.48628C32.5642 9.22774 33.4725 10.2816 34.0089 11.5146C34.5453 12.7476 34.6857 14.1044 34.4122 15.4133C34.1388 16.7223 33.4638 17.9247 32.4727 18.8684C31.4815 19.8121 30.2188 20.4547 28.844 20.7151C27.4693 20.9755 26.0443 20.8418 24.7494 20.3311C23.4544 19.8204 22.3476 18.9555 21.5688 17.8458C20.7901 16.7361 20.3745 15.4315 20.3745 14.0969C20.3767 12.308 21.1241 10.5929 22.4527 9.32795C23.7813 8.06301 25.5826 7.35147 27.4614 7.34942V7.34906Z" fill="white"/>
<path d="M25.8774 16.6777C26.0433 16.8319 26.2659 16.9182 26.4976 16.9182C26.7294 16.9182 26.952 16.8319 27.1179 16.6777L31.3676 12.7271C31.4521 12.6498 31.5196 12.5573 31.5664 12.4551C31.6131 12.3528 31.6381 12.2427 31.6399 12.1312C31.6418 12.0196 31.6205 11.9089 31.5771 11.8052C31.5338 11.7016 31.4694 11.6071 31.3875 11.5273C31.3057 11.4475 31.2081 11.3839 31.1003 11.3402C30.9926 11.2964 30.8768 11.2734 30.7596 11.2725C30.6425 11.2716 30.5263 11.2927 30.4178 11.3347C30.3093 11.3767 30.2105 11.4388 30.1273 11.5173L26.4976 14.8911L24.7588 13.2748C24.6756 13.1963 24.5769 13.1342 24.4684 13.0922C24.3599 13.0502 24.2437 13.0291 24.1265 13.03C24.0094 13.0309 23.8936 13.0539 23.7858 13.0977C23.6781 13.1414 23.5804 13.205 23.4986 13.2848C23.4168 13.3646 23.3523 13.4591 23.309 13.5627C23.2657 13.6664 23.2444 13.7771 23.2462 13.8887C23.2481 14.0002 23.2731 14.1103 23.3198 14.2126C23.3665 14.3148 23.4341 14.4073 23.5185 14.4846L25.8774 16.6777Z" fill="white"/>
</svg>
