<svg width="57" height="56" viewBox="0 0 57 56" fill="none" xmlns="http://www.w3.org/2000/svg">
<path d="M8.58365 10.8683H47.8312C49.24 10.8683 50.0817 11.6809 50.3993 12.4414C50.7613 13.3078 50.5736 14.2168 49.8971 14.8731C49.3921 15.3631 48.6787 15.5981 48.0348 15.4865C47.3534 15.3684 46.7879 14.8799 46.3995 14.0738C46.2023 13.6643 45.7041 13.4894 45.2876 13.6835C44.8708 13.8773 44.6929 14.3665 44.8903 14.7759C45.5113 16.0646 46.5251 16.8907 47.7448 17.1022C48.93 17.3075 50.1736 16.9108 51.0706 16.0404C52.2283 14.9171 52.563 13.2993 51.9443 11.8182C51.2765 10.2202 49.7006 9.22754 47.8313 9.22754H8.58365C6.71434 9.22754 5.13838 10.2202 4.47063 11.8183C3.85176 13.2995 4.18652 14.9172 5.34423 16.0404C6.08534 16.7595 7.0628 17.1555 8.04872 17.1555C8.25612 17.1555 8.46397 17.138 8.67015 17.1022C9.88986 16.8907 10.9036 16.0646 11.5246 14.7759C11.7219 14.3664 11.544 13.8773 11.1273 13.6835C10.7106 13.4898 10.2126 13.6644 10.0153 14.0738C9.62691 14.8799 9.06136 15.3684 8.38003 15.4865C7.73633 15.5982 7.02283 15.3631 6.51774 14.8731C5.84131 14.2169 5.65361 13.3078 6.01553 12.4414C6.33326 11.6808 7.17479 10.8683 8.58365 10.8683Z" fill="white"/>
<path d="M48.555 5.36736V2.77495C48.555 1.2448 47.2864 0 45.7273 0H10.6873C9.12813 0 7.85966 1.2448 7.85966 2.77495V5.36736C3.49581 5.5417 0 9.08239 0 13.4118C0 15.5248 0.911666 17.5508 2.567 19.1166C4.14464 20.6089 6.19652 21.4646 8.19642 21.4646C8.97861 21.4646 9.72095 21.3768 10.4171 21.2066V21.6138C10.4171 23.6213 11.8755 25.3 13.8059 25.6818V55.1797C13.8059 55.6327 14.1798 56 14.6409 56C15.102 56 15.4758 55.6327 15.4758 55.1797V30.0252H20.5899V55.1797C20.5899 55.6327 20.9638 56 21.4249 56C21.886 56 22.2598 55.6327 22.2598 55.1797V30.0252H27.3739V55.1797C27.3739 55.6327 27.7478 56 28.2089 56C28.6701 56 29.0438 55.6327 29.0438 55.1797V30.0252H34.1579V55.1797C34.1579 55.6327 34.5317 56 34.9929 56C35.4541 56 35.8278 55.6327 35.8278 55.1797V30.0252H40.942V55.1797C40.942 55.6327 41.3158 56 41.777 56C42.2382 56 42.612 55.6327 42.612 55.1797V25.6817C44.5406 25.2996 45.9976 23.621 45.9976 21.6138V21.2066C46.6938 21.3768 47.436 21.4646 48.2182 21.4646C50.2183 21.4646 52.2706 20.6089 53.8491 19.1167C55.5057 17.5508 56.4179 15.5247 56.4179 13.4118C56.4178 9.08239 52.9205 5.54159 48.555 5.36736ZM9.52958 2.77495C9.52958 2.14944 10.0489 1.64062 10.6873 1.64062H45.7274C46.3657 1.64062 46.8851 2.14944 46.8851 2.77495V5.35894H9.52958V2.77495ZM48.2181 19.824C44.1491 19.824 42.5992 17.1002 42.0374 15.4766C41.9224 15.144 41.6044 14.9203 41.2469 14.9203H30.1666C29.7054 14.9203 29.3316 15.2876 29.3316 15.7406C29.3316 16.1936 29.7054 16.5609 30.1666 16.5609H40.6679C41.4356 18.4045 42.6976 19.7789 44.3274 20.5966V21.6139C44.3274 22.9975 43.1832 24.1231 41.7768 24.1231H30.4046C29.9434 24.1231 29.5696 24.4904 29.5696 24.9434C29.5696 25.3964 29.9434 25.7637 30.4046 25.7637H40.9418V28.3847H15.4758V25.7637H26.2891C26.7503 25.7637 27.1241 25.3964 27.1241 24.9434C27.1241 24.4904 26.7503 24.1231 26.2891 24.1231H14.6409C13.2327 24.1231 12.087 22.9975 12.087 21.6139V20.5966C13.717 19.7789 14.979 18.4045 15.7466 16.5609H26.2892C26.7504 16.5609 27.1242 16.1936 27.1242 15.7406C27.1242 15.2876 26.7504 14.9203 26.2892 14.9203H15.1677C14.8101 14.9203 14.4923 15.144 14.3771 15.4766C13.8155 17.1002 12.2656 19.824 8.19642 19.824C5.11564 19.824 1.66992 17.0818 1.66992 13.4118C1.66992 9.87602 4.59774 6.99956 8.19642 6.99956H48.2182C51.8188 6.99956 54.748 9.87602 54.748 13.4118C54.7478 17.0818 51.3006 19.824 48.2181 19.824Z" fill="white"/>
</svg>
