<svg width="68" height="47" viewBox="0 0 68 47" fill="none" xmlns="http://www.w3.org/2000/svg">
<path d="M0.0192642 4.48823L0.876495 0.677549C0.901062 0.568038 0.948631 0.464099 1.01648 0.371675C1.08433 0.279251 1.17112 0.200156 1.2719 0.138911C1.37269 0.0776653 1.48547 0.0354717 1.60383 0.0147425C1.72218 -0.00598681 1.84377 -0.00484534 1.96165 0.0181018L15.6542 2.6739C15.8187 2.70581 15.9707 2.77911 16.0934 2.8858C16.2161 2.99249 16.3049 3.12845 16.35 3.27884L18.6739 11.0282H21.7208C21.715 10.924 21.7024 10.8199 21.7024 10.7162C21.7016 9.34812 22.1768 8.01639 23.0572 6.91956C23.9376 5.82272 25.1761 5.0195 26.588 4.62963C27.9999 4.23976 29.5096 4.28412 30.8922 4.75608C32.2747 5.22804 33.456 6.10234 34.26 7.24866C35.4711 6.68212 36.8625 6.54374 38.1752 6.85932C38.9055 5.50093 40.0304 4.35938 41.4227 3.56373C42.815 2.76807 44.4192 2.35004 46.0539 2.35687C47.6886 2.36371 49.2887 2.79514 50.6732 3.60241C52.0577 4.40967 53.1715 5.56058 53.8887 6.92502C54.4244 6.76927 54.9826 6.6905 55.5439 6.69142C56.8646 6.69352 58.1418 7.13005 59.149 7.92358C60.1561 8.7171 60.8281 9.81633 61.0457 11.0262H66.5804C66.7585 11.0258 66.9328 11.0735 67.0821 11.1635C67.2314 11.2536 67.3493 11.3821 67.4212 11.5333C67.4932 11.6846 67.5162 11.852 67.4874 12.0152C67.4586 12.1784 67.3792 12.3302 67.259 12.4522L46.9376 33.2182L54.1433 34.9445C55.2054 33.6917 56.699 32.8163 58.3736 32.4651C60.0482 32.114 61.8019 32.3086 63.3404 33.0161C64.8789 33.7237 66.1085 34.9012 66.823 36.3511C67.5375 37.8009 67.6934 39.435 67.2644 40.9789C66.8355 42.5229 65.8479 43.8829 64.4673 44.8306C63.0867 45.7784 61.3971 46.2562 59.6822 46.184C57.9672 46.1118 56.3311 45.4939 55.0485 44.4341C53.7659 43.3742 52.9148 41.9368 52.638 40.3631L36.893 36.5919L34.0714 42.5381C33.5128 43.7149 32.5755 44.702 31.3883 45.3639C30.2012 46.0257 28.8224 46.3298 27.4416 46.2341C26.0608 46.1385 24.7458 45.648 23.6774 44.83C22.609 44.012 21.8396 42.9067 21.475 41.666L15.1585 20.1656L11.3796 7.56062L0.729248 5.49419C0.611404 5.47137 0.49955 5.4272 0.400085 5.36421C0.300613 5.30123 0.215485 5.22066 0.149551 5.1271C0.0836182 5.03355 0.0381699 4.92884 0.0158157 4.81897C-0.00653839 4.7091 -0.00536346 4.59622 0.0192642 4.48677V4.48823ZM55.5439 8.39673C54.9445 8.3952 54.3537 8.52881 53.8222 8.78607C53.7062 8.84196 53.5788 8.87421 53.4484 8.88066C53.318 8.88711 53.1876 8.86761 53.066 8.82347C52.9443 8.77932 52.8342 8.71156 52.7431 8.6247C52.6519 8.53785 52.5818 8.4339 52.5374 8.31984C52.0579 7.08044 51.1808 6.00742 50.0244 5.24547C48.8679 4.48353 47.4876 4.06932 46.0698 4.05871C44.6519 4.0481 43.2647 4.4416 42.0951 5.18614C40.9256 5.93068 40.03 6.99044 39.5291 8.2225C39.4849 8.33097 39.4173 8.4299 39.3304 8.5132C39.2435 8.59651 39.1392 8.66243 39.0239 8.70691C38.9086 8.7514 38.7846 8.77351 38.6598 8.77189C38.5349 8.77028 38.4117 8.74496 38.2978 8.6975C37.6802 8.44328 37.0001 8.34862 36.3294 8.42348C35.6587 8.49834 35.0221 8.73997 34.4869 9.12285C34.3775 9.20124 34.2503 9.25562 34.1151 9.28192C33.9798 9.30822 33.8399 9.30576 33.7058 9.27473C33.5716 9.24369 33.4468 9.18489 33.3406 9.10271C33.2345 9.02053 33.1497 8.91711 33.0926 8.80019C32.6221 7.83197 31.8084 7.04286 30.7872 6.56447C29.766 6.08608 28.5992 5.94733 27.4812 6.17136C26.3632 6.39539 25.3617 6.96865 24.6437 7.79555C23.9258 8.62244 23.5347 9.65297 23.5358 10.7153C23.5358 10.8189 23.5395 10.9226 23.5474 11.0272H59.1777C58.9725 10.2762 58.5039 9.6101 57.846 9.13381C57.188 8.65752 56.3781 8.3982 55.5439 8.39673ZM44.9303 32.7374L64.5076 12.7316H19.1868L23.6558 27.6409L44.9303 32.7374ZM60.0145 44.4877C61.1319 44.4877 62.2241 44.18 63.1532 43.6034C64.0823 43.0268 64.8064 42.2073 65.234 41.2484C65.6616 40.2896 65.7734 39.2345 65.5555 38.2167C65.3375 37.1988 64.7994 36.2638 64.0093 35.5299C63.2192 34.7961 62.2126 34.2963 61.1167 34.0938C60.0208 33.8914 58.8848 33.9953 57.8525 34.3924C56.8202 34.7896 55.9379 35.4622 55.3171 36.3251C54.6963 37.188 54.365 38.2025 54.365 39.2404C54.3667 40.6316 54.9624 41.9654 56.0215 42.9491C57.0807 43.9328 58.5167 44.4862 60.0145 44.4877ZM12.3007 6.00082C12.4653 6.03273 12.6172 6.10604 12.7399 6.21272C12.8626 6.31941 12.9514 6.45538 12.9966 6.60576L16.9264 19.7125L23.2445 41.2173C23.5093 42.118 24.068 42.9205 24.8438 43.5144C25.6195 44.1083 26.5743 44.4645 27.5769 44.5339C28.5794 44.6034 29.5805 44.3827 30.4425 43.9023C31.3046 43.4219 31.9853 42.7052 32.391 41.8509L35.5286 35.2438C35.6162 35.0588 35.7718 34.9089 35.9675 34.8208C36.1633 34.7327 36.3864 34.7122 36.597 34.7629L52.5672 38.5872C52.6408 37.8559 52.8398 37.1402 53.1567 36.4673L22.6854 29.1671C22.5295 29.1298 22.387 29.0551 22.272 28.9504C22.1571 28.8458 22.0738 28.7149 22.0304 28.5709L17.0941 12.1076L14.733 4.23516L2.48405 1.85774L2.00199 3.99912L12.3007 6.00082Z" fill="#FFFAFA"/>
<path d="M24.3522 31.8296L32.4837 33.7763C32.6126 33.807 32.7326 33.8635 32.8356 33.9416C32.9386 34.0198 33.022 34.1179 33.0801 34.2291C33.1381 34.3402 33.1694 34.4618 33.1717 34.5853C33.1741 34.7088 33.1474 34.8314 33.0936 34.9443L30.2354 40.967C30.0262 41.4075 29.6753 41.7771 29.2308 42.0248C28.7864 42.2726 28.2702 42.3864 27.7533 42.3506C27.2364 42.3148 26.7441 42.1311 26.3441 41.8249C25.9441 41.5187 25.6561 41.1049 25.5196 40.6404L23.2387 32.8774C23.1966 32.7335 23.1959 32.5819 23.2367 32.4376C23.2774 32.2934 23.3582 32.1616 23.4709 32.0554C23.5837 31.9493 23.7245 31.8725 23.8792 31.8327C24.0339 31.7929 24.1972 31.7915 24.3527 31.8286L24.3522 31.8296ZM27.2864 40.1927C27.3231 40.3176 27.4006 40.429 27.5082 40.5113C27.6157 40.5937 27.7482 40.6432 27.8872 40.6528C28.0263 40.6625 28.1651 40.6319 28.2847 40.5653C28.4043 40.4986 28.4987 40.3993 28.555 40.2808L30.9799 35.176L25.4258 33.8449L27.2864 40.1927Z" fill="#FFFAFA"/>
</svg>
