<svg width="49" height="59" viewBox="0 0 49 59" fill="none" xmlns="http://www.w3.org/2000/svg">
<path d="M48.9064 9.6121L38.5922 0H7.90406V31.3372C3.4831 31.6889 0 35.1525 0 39.3622C0 41.7792 1.14955 43.9492 2.96402 45.4272V58.9283H4.99994L8.64507 55.5312L12.2902 58.9283H14.3261V52.9434H48.9064V9.6121ZM39.0263 2.35771L46.3765 9.20754H39.0263V2.35771ZM1.48201 39.3622C1.48201 35.6814 4.69538 32.6868 8.64507 32.6868C12.5947 32.6868 15.8081 35.6814 15.8081 39.3622C15.8081 43.0431 12.5947 46.0377 8.64507 46.0377C4.69538 46.0377 1.48201 43.0431 1.48201 39.3622ZM8.64507 53.5781L4.44603 57.4913V46.4013C5.69031 47.0485 7.12181 47.4189 8.64507 47.4189C10.1683 47.4189 11.5998 47.0485 12.8441 46.4013V57.4913L8.64507 53.5781ZM14.3261 51.5622V45.4272C16.1406 43.9492 17.2901 41.7792 17.2901 39.3622C17.2901 35.1527 13.807 31.689 9.38607 31.3372V1.38113H37.5443V10.5887H47.4244V51.5622H14.3261Z" fill="#FFFEFE"/>
<path d="M14.5732 7.36621H26.4292V8.74728H14.5732V7.36621Z" fill="#FFFEFE"/>
<path d="M14.5732 11.0488H22.4771V12.4305H14.5732V11.0488Z" fill="#FFFEFE"/>
<path d="M14.5732 16.5732H42.2373V17.9544H14.5732V16.5732Z" fill="#FFFEFE"/>
<path d="M14.5732 20.2568H42.2373V21.6376H14.5732V20.2568Z" fill="#FFFEFE"/>
<path d="M14.5732 27.623H42.2373V29.0038H14.5732V27.623Z" fill="#FFFEFE"/>
<path d="M18.5254 31.3057H38.2856V32.6868H18.5254V31.3057Z" fill="#FFFEFE"/>
<path d="M14.5732 23.9395H42.2373V25.3208H14.5732V23.9395Z" fill="#FFFEFE"/>
<path d="M30.3813 36.8301H42.2373V38.2117H30.3813V36.8301Z" fill="#FFFEFE"/>
<path d="M34.3335 40.5137H42.2375V41.8942H34.3335V40.5137Z" fill="#FFFEFE"/>
<path d="M8.64519 43.7356C11.2329 43.7356 13.3382 41.7736 13.3382 39.362C13.3382 36.9503 11.2329 34.9883 8.64519 34.9883C6.05747 34.9883 3.95215 36.9503 3.95215 39.362C3.95215 41.7736 6.05747 43.7356 8.64519 43.7356ZM8.64519 36.3694C10.4158 36.3694 11.8562 37.7118 11.8562 39.362C11.8562 41.0121 10.4158 42.3545 8.64519 42.3545C6.87456 42.3545 5.43416 41.0121 5.43416 39.362C5.43416 37.7118 6.87456 36.3694 8.64519 36.3694Z" fill="#FFFEFE"/>
</svg>
