<svg width="50" height="50" viewBox="0 0 50 50" fill="none" xmlns="http://www.w3.org/2000/svg">
<path d="M24.9993 10.748C19.881 10.748 15.7168 14.9122 15.7168 20.0306C15.7168 25.1489 19.881 29.3131 24.9993 29.3131C30.1177 29.3131 34.2818 25.1489 34.2818 20.0306C34.2818 14.9122 30.1178 10.748 24.9993 10.748ZM24.9993 25.4047C22.036 25.4047 19.6252 22.9938 19.6252 20.0306C19.6252 17.0673 22.036 14.6564 24.9993 14.6564C27.9626 14.6564 30.3734 17.0673 30.3734 20.0306C30.3734 22.9938 27.9626 25.4047 24.9993 25.4047Z" fill="white"/>
<path d="M24.9995 0C13.9545 0 4.96875 8.98584 4.96875 20.0308V20.5845C4.96875 26.1704 8.17129 32.6798 14.4877 39.9314C19.0666 45.1885 23.5815 48.8541 23.7714 49.0076L24.9995 50L26.2276 49.0077C26.4176 48.8542 30.9325 45.1886 35.5113 39.9315C41.8276 32.6798 45.0303 26.1705 45.0303 20.5846V20.0309C45.0303 8.98584 36.0445 0 24.9995 0ZM41.1219 20.5846C41.1219 30.0245 28.9587 41.4518 24.9995 44.9207C21.0393 41.4507 8.87715 30.0238 8.87715 20.5846V20.0309C8.87715 11.141 16.1097 3.9085 24.9995 3.9085C33.8894 3.9085 41.1219 11.141 41.1219 20.0309V20.5846Z" fill="white"/>
</svg>
