<svg width="50" height="51" viewBox="0 0 50 51" fill="none" xmlns="http://www.w3.org/2000/svg">
<g clip-path="url(#clip0)">
<path d="M44.1406 0.228516H5.85938C2.62852 0.228516 0 2.85703 0 6.08789V44.3691C0 47.6 2.62852 50.2285 5.85938 50.2285H44.1406C47.3715 50.2285 50 47.6 50 44.3691V6.08789C50 2.85703 47.3715 0.228516 44.1406 0.228516ZM46.0938 44.3691C46.0938 45.4461 45.2176 46.3223 44.1406 46.3223H33.0078V30.4043H39.042L40.0391 24.3496H33.0078V20.1504C33.0078 18.4927 34.2798 17.2207 35.9375 17.2207H39.9414V11.166H35.9375C30.9646 11.166 26.9553 15.1943 26.9553 20.1674V24.3496H21.0938V30.4043H26.9553V46.3223H5.85938C4.78242 46.3223 3.90625 45.4461 3.90625 44.3691V6.08789C3.90625 5.01094 4.78242 4.13477 5.85938 4.13477H44.1406C45.2176 4.13477 46.0938 5.01094 46.0938 6.08789V44.3691Z" fill="white"/>
</g>
<defs>
<clipPath id="clip0">
<rect width="50" height="50" fill="white" transform="translate(0 0.228516)"/>
</clipPath>
</defs>
</svg>
