<svg width="50" height="51" viewBox="0 0 50 51" fill="none" xmlns="http://www.w3.org/2000/svg">
<g clip-path="url(#clip0)">
<path d="M35.4759 0.614258H14.5242C6.51553 0.614258 0 7.12978 0 15.1385V36.09C0 44.0987 6.51553 50.6143 14.5242 50.6143H35.4758C43.4845 50.6143 50 44.0987 50 36.0901V15.1385C50 7.12978 43.4845 0.614258 35.4759 0.614258ZM46.0938 36.09C46.0938 41.9448 41.3306 46.708 35.4759 46.708H14.5242C8.66943 46.708 3.90625 41.9448 3.90625 36.0901V15.1385C3.90625 9.28369 8.66943 4.52051 14.5242 4.52051H35.4758C41.3306 4.52051 46.0938 9.28369 46.0938 15.1385V36.09Z" fill="white"/>
<path d="M25 12.1377C17.5689 12.1377 11.5234 18.1832 11.5234 25.6143C11.5234 33.0453 17.5689 39.0908 25 39.0908C32.4311 39.0908 38.4766 33.0453 38.4766 25.6143C38.4766 18.1832 32.4311 12.1377 25 12.1377ZM25 35.1846C19.7229 35.1846 15.4297 30.8913 15.4297 25.6143C15.4297 20.3372 19.7229 16.0439 25 16.0439C30.2771 16.0439 34.5703 20.3372 34.5703 25.6143C34.5703 30.8913 30.2771 35.1846 25 35.1846Z" fill="white"/>
<path d="M38.6719 13.8955C39.7506 13.8955 40.625 13.0211 40.625 11.9424C40.625 10.8637 39.7506 9.98926 38.6719 9.98926C37.5932 9.98926 36.7188 10.8637 36.7188 11.9424C36.7188 13.0211 37.5932 13.8955 38.6719 13.8955Z" fill="white"/>
</g>
<defs>
<clipPath id="clip0">
<rect width="50" height="50" fill="white" transform="translate(0 0.614258)"/>
</clipPath>
</defs>
</svg>
