<svg width="50" height="50" viewBox="0 0 50 50" fill="none" xmlns="http://www.w3.org/2000/svg">
<path d="M47.4326 6.47725L40.8998 0L27.3329 13.4757L32.5924 18.88C31.7109 20.4368 29.7984 23.419 26.5391 26.6617C23.2793 29.905 20.26 31.8295 18.6803 32.7204L13.3551 27.4897L0 40.698L6.49712 47.2052C8.98063 49.6761 12.7595 50.3165 15.9004 48.7988C20.6932 46.4828 27.9266 42.2094 35.1691 35.0037C42.4114 27.7981 46.7065 20.6013 49.0344 15.8328C49.586 14.7029 49.8539 13.4902 49.8539 12.2853C49.8539 10.1577 49.0182 8.05472 47.4326 6.47725ZM45.5327 14.1405C43.3353 18.6419 39.276 25.4402 32.4164 32.265C25.5565 39.0901 18.7237 43.1286 14.1995 45.3148C12.5501 46.1119 10.5608 45.771 9.25422 44.471L5.50426 40.7152L13.3647 32.9416L17.9014 37.3975L19.1151 36.8597C19.3124 36.7723 24.0067 34.659 29.292 29.4005C34.5808 24.1385 36.6608 19.5075 36.7467 19.3128L37.273 18.1214L32.7965 13.5218L40.9025 5.47014L44.6819 9.21726C45.9914 10.522 46.3335 12.5003 45.5327 14.1405Z" fill="white"/>
</svg>
