<svg width="50" height="51" viewBox="0 0 50 51" fill="none" xmlns="http://www.w3.org/2000/svg">
<path d="M44.0117 0.614258H5.84226C2.62084 0.614258 0 4.16588 0 8.53139V42.3111C0 46.6766 2.62084 50.2283 5.84226 50.2283H44.0117C47.2331 50.2283 49.8539 46.6766 49.8539 42.3111V8.53139C49.8539 4.16588 47.2331 0.614258 44.0117 0.614258ZM45.9591 42.3111C45.9591 43.7663 45.0855 44.9502 44.0117 44.9502H5.84226C4.76845 44.9502 3.89484 43.7663 3.89484 42.3111V8.53139C3.89484 7.07622 4.76845 5.89234 5.84226 5.89234H44.0117C45.0855 5.89234 45.9591 7.07622 45.9591 8.53139V42.3111Z" fill="white"/>
<path d="M45.6289 3.9043L24.9274 24.7708L4.226 3.9043L1.90137 8.1393L24.9274 31.3489L47.9535 8.1393L45.6289 3.9043Z" fill="white"/>
</svg>
